<svg xmlns="http://www.w3.org/2000/svg" viewBox="0 0 17.09 17.09"><defs><style>.cls-1{fill:#fff;}</style></defs><g id="Layer_2" data-name="Layer 2"><g id="Layer_1-2" data-name="Layer 1"><path class="cls-1" d="M0,14.66Q0,7.49,0,.33C0,.07,0,0,.33,0H9.8l.41.19a2,2,0,0,1,1.2,1.73c0,.78,0,1.56,0,2.35A.72.72,0,0,1,11,5a.75.75,0,0,1-1.07-.73c0-.67,0-1.34,0-2a.64.64,0,0,0-.66-.72c-1,0-1.94,0-3,0a1.76,1.76,0,0,1,.93,1.81c0,2.25,0,4.5,0,6.75,0,1,0,2,0,3,0,.35.12.47.47.46s1,0,1.44,0,.85-.23.86-.84c0-.85,0-1.7,0-2.55,0-.54.3-.86.75-.86s.74.31.74.85c0,.93,0,1.85,0,2.77A2.15,2.15,0,0,1,9.28,15c-.54,0-1.08,0-1.63,0-.35,0-.51.09-.49.47a1.51,1.51,0,0,1-1.08,1.64H5.24c-1.33-.45-2.66-.92-4-1.35A1.81,1.81,0,0,1,0,14.66Z"/><path class="cls-1" d="M17.09,7.45l-3,3a.74.74,0,0,1-.86.22.78.78,0,0,1-.49-.78V8.43c0-.49,0-.53-.56-.53H10.47a4.61,4.61,0,0,1-.53,0A.75.75,0,0,1,10,6.38c.59,0,1.18,0,1.78,0,1.1,0,1,.14,1-1a9.25,9.25,0,0,1,0-1.18A.71.71,0,0,1,14,3.72c1.07,1,2.13,2,3.1,3.12Z"/></g></g></svg>