<svg xmlns="http://www.w3.org/2000/svg" viewBox="0 0 16.09 16.1"><defs><style>.cls-1{fill:#2e3192;}</style></defs><g id="Layer_2" data-name="Layer 2"><g id="Layer_1-2" data-name="Layer 1"><path class="cls-1" d="M8.05,16.1a8.05,8.05,0,1,1,8-8A8.07,8.07,0,0,1,8.05,16.1ZM8,2.93a3.22,3.22,0,0,0-3,1.95,3.25,3.25,0,0,0,.67,3.57c.27.28.56.56.85.84s.13.24-.06.33l-.68.31a6.38,6.38,0,0,0-2.78,2.25c-.33.5-.33.52.11.92A6.89,6.89,0,0,0,9,15a6.86,6.86,0,0,0,4.27-2.24.36.36,0,0,0,0-.52,6.09,6.09,0,0,0-2.33-2.06c-.4-.2-.8-.39-1.22-.56-.26-.12-.33-.23-.09-.45a9.2,9.2,0,0,0,.76-.77A3.15,3.15,0,0,0,11,4.88,3.16,3.16,0,0,0,8,2.93Z"/></g></g></svg>