<svg xmlns="http://www.w3.org/2000/svg" viewBox="0 0 16.32 13.44"><defs><style>.cls-1{fill:#2e3192;}</style></defs><g id="Layer_2" data-name="Layer 2"><g id="Layer_1-2" data-name="Layer 1"><path class="cls-1" d="M6,9.11c.15.24.37.22.54.28,1,.34,2,.68,2.94,1a1.19,1.19,0,0,0,1.76-1A.44.44,0,0,1,11.6,9a4,4,0,0,0,2.14-1.26,1.11,1.11,0,0,1,1.12-.39c.19,0,.34-.09.49-.17a.63.63,0,0,1,.75,0,.66.66,0,0,1,.17.77,4.26,4.26,0,0,1-.57,1.1c-.45.66-.92,1.31-1.37,2a1.78,1.78,0,0,1-1,.68q-2.46.82-4.94,1.62a2,2,0,0,1-1.09,0,14.57,14.57,0,0,1-2.06-.56,7,7,0,0,0-4.15-.23C0,12.83,0,12.81,0,11.65c0-.93,0-1.87,0-2.8a.45.45,0,0,1,.44-.53,7.83,7.83,0,0,0,2.81-.93,4.06,4.06,0,0,1,4.27,0,17.73,17.73,0,0,0,2.5,1l.33.13a1,1,0,0,1,.54,1.21,1,1,0,0,1-1.2.5L6.53,9.2A1,1,0,0,0,6,9.11Z"/><path class="cls-1" d="M15.33,4.07V5.49A.46.46,0,0,1,15,6l-3.46,1.5c-.4.18-.46.14-.47-.29,0-.94,0-1.87,0-2.8a.53.53,0,0,1,.35-.55c1.17-.49,2.34-1,3.51-1.51.34-.15.42,0,.41.31Z"/><path class="cls-1" d="M10.7,5.82V7.29c0,.26-.09.36-.35.24L6.76,6a.49.49,0,0,1-.31-.53c0-1,0-1.93,0-2.89,0-.34.15-.33.39-.22L9,3.25c.44.19.89.4,1.34.58a.56.56,0,0,1,.39.62C10.69,4.91,10.7,5.37,10.7,5.82Z"/><path class="cls-1" d="M10.89,3.61c-.13,0-.25-.08-.38-.14L7.17,2C7.08,2,7,2,6.94,1.85s.14-.18.23-.22L10.71.08a.62.62,0,0,1,.55.06L14.55,1.6c.11,0,.29.08.28.24s-.18.17-.3.22l-3.3,1.42Z"/><path class="cls-1" d="M4.11,1.42c.36,0,.71,0,1.06,0s.45.13.45.4-.21.37-.45.38H3.05c-.25,0-.5-.08-.49-.4s.24-.38.49-.38H4.11Z"/><path class="cls-1" d="M5.85.79H4.75C4.5.78,4.3.67,4.3.39S4.52,0,4.76,0l2,0c.27,0,.57,0,.56.4s-.3.39-.58.39Z"/><path class="cls-1" d="M2.71,3.93H1.6c-.22,0-.38-.09-.4-.33a.35.35,0,0,1,.38-.4q1.17,0,2.34,0a.37.37,0,1,1,0,.73Z"/><path class="cls-1" d="M4,4.85H5.19c.25,0,.44.1.44.38s-.2.36-.43.36H3c-.25,0-.44-.12-.43-.39s.21-.36.46-.36H4Z"/></g></g></svg>