<svg xmlns="http://www.w3.org/2000/svg" viewBox="0 0 19 19"><defs><style>.cls-1{fill:#2e3192;}</style></defs><g id="Layer_2" data-name="Layer 2"><g id="Layer_1-2" data-name="Layer 1"><path class="cls-1" d="M10.64,0a10,10,0,0,1,4.29,1.66c.18.13.27.11.27-.14a2.72,2.72,0,0,1,.06-.58A.58.58,0,0,1,16.4,1q0,1.1,0,2.19a.56.56,0,0,1-.5.55c-.69.13-1.38.27-2.07.38A.6.6,0,0,1,13.62,3c.24-.06.48-.1.73-.15,0-.19-.19-.24-.31-.31a8.34,8.34,0,0,0-9.9.62,8,8,0,0,0-2.71,8.37,7.93,7.93,0,0,0,6.32,6.15,8.33,8.33,0,0,0,10-6.7c.07-.42.07-.84.11-1.26s.07-.57.38-.71A.69.69,0,0,1,19,9.2v1.44a2.1,2.1,0,0,0-.06.24,9.46,9.46,0,0,1-4.19,6.59A10,10,0,0,1,10.64,19H8.36L8.16,19a9.44,9.44,0,0,1-6.65-4.24A9.9,9.9,0,0,1,0,10.64V8.36a2.1,2.1,0,0,0,.06-.24A9.43,9.43,0,0,1,4.32,1.49,10,10,0,0,1,8.36,0Z"/><path class="cls-1" d="M9.52,8.34h3.12c.58,0,.8.22.8.79q0,2.13,0,4.26c0,.57-.22.8-.79.8H6.36c-.57,0-.8-.23-.8-.79,0-1.44,0-2.87,0-4.31,0-.51.23-.74.75-.75Zm0,3.14h.38c.31,0,.51-.18.5-.5s-.2-.48-.51-.49H9.47c-.6,0-.84.14-.84.51S8.87,11.48,9.48,11.48Z"/><path class="cls-1" d="M6.49,6.49a3,3,0,1,1,6,0v.08c0,.7-.28.91-1,.72-.18,0-.2-.18-.21-.32s0-.45,0-.68a1.8,1.8,0,0,0-3.6,0c0,.13,0,.26,0,.38,0,.64,0,.64-.63.64S6.48,7.29,6.49,6.49Z"/></g></g></svg>